<svg width="47" height="47" viewBox="0 0 47 47" fill="none" xmlns="http://www.w3.org/2000/svg">
<path d="M23.8774 0.0211162C36.5616 0.0211173 46.8774 10.337 46.8774 23.0211C46.8774 35.7053 36.5616 46.0211 23.8774 46.0211C11.1933 46.0211 0.877442 35.7053 0.877443 23.0211C0.877445 10.337 11.1933 0.021115 23.8774 0.0211162ZM23.8774 43.7439C35.3046 43.7439 44.6002 34.4482 44.6002 23.0211C44.6002 11.594 35.3046 2.29834 23.8774 2.29834C12.4503 2.29834 3.15467 11.594 3.15467 23.0211C3.15467 34.4482 12.4503 43.7439 23.8774 43.7439ZM18.7875 22.0106C18.1685 22.5421 18.1685 23.5002 18.7875 24.0316L26.7946 30.9063C27.2714 31.3156 27.9896 31.2613 28.3994 30.7849C28.8096 30.308 28.7553 29.5887 28.278 29.1788L21.1083 23.0211L28.278 16.8635C28.7553 16.4536 28.8097 15.7343 28.3994 15.2573C27.9896 14.7809 27.2714 14.7266 26.7946 15.1359L18.7875 22.0106Z" fill="#AFB5C1"/>
</svg>
