<svg width="85" height="14" viewBox="0 0 85 14" fill="none" xmlns="http://www.w3.org/2000/svg">
<path d="M14.1362 5.93998L11.0069 8.99262L11.7435 13.3064C11.7907 13.5775 11.608 13.8427 11.331 13.8839C11.225 13.9016 11.1071 13.8839 11.0128 13.8309L7.14102 11.7977L3.26924 13.8309C3.02173 13.9605 2.72118 13.8662 2.59153 13.6187C2.53849 13.5185 2.52082 13.4066 2.53849 13.3005L3.27513 8.98672L0.151781 5.93998C-0.0485847 5.74551 -0.0485847 5.42728 0.139995 5.22692C0.216606 5.1503 0.316789 5.09727 0.428758 5.07959L4.75431 4.44902L6.69314 0.535993C6.86404 0.194192 7.42389 0.194192 7.59479 0.535993L9.52773 4.46081L13.8533 5.09137C14.1303 5.13263 14.3188 5.38603 14.2776 5.66301C14.2599 5.76908 14.2128 5.86927 14.1303 5.94588L14.1362 5.93998ZM31.7842 5.93998L28.655 8.99262L29.3916 13.3064C29.4388 13.5775 29.2561 13.8427 28.9791 13.8839C28.873 13.9016 28.7552 13.8839 28.6609 13.8309L24.7891 11.7977L20.9173 13.8309C20.6698 13.9605 20.3692 13.8662 20.2396 13.6187C20.1866 13.5185 20.1689 13.4066 20.1866 13.3005L20.9232 8.98672L17.794 5.93409C17.5936 5.73962 17.5936 5.42139 17.7822 5.22102C17.8588 5.14441 17.959 5.09137 18.0709 5.07369L22.3965 4.44313L24.3294 0.518314C24.5003 0.176513 25.0602 0.176513 25.2311 0.518314L27.164 4.44313L31.4896 5.07369C31.7665 5.11495 31.9551 5.36835 31.9139 5.64533C31.8962 5.7514 31.849 5.85159 31.7665 5.9282L31.7842 5.93998ZM49.4323 5.93998L46.303 8.99262L47.0397 13.3064C47.0868 13.5775 46.9041 13.8427 46.6272 13.8839C46.5211 13.9016 46.4032 13.8839 46.3089 13.8309L42.4371 11.7977L38.5654 13.8309C38.3179 13.9605 38.0173 13.8662 37.8877 13.6187C37.8346 13.5185 37.8169 13.4066 37.8346 13.3005L38.5713 8.98672L35.442 5.93409C35.2416 5.73962 35.2416 5.42139 35.4302 5.22102C35.5068 5.14441 35.607 5.09137 35.719 5.07369L40.0445 4.44313L41.9775 0.518314C42.1484 0.176513 42.7082 0.176513 42.8791 0.518314L44.8121 4.44313L49.1376 5.07369C49.4146 5.11495 49.6032 5.36835 49.5619 5.64533C49.5442 5.7514 49.4971 5.85159 49.4146 5.9282L49.4323 5.93998ZM67.0803 5.93998L63.9511 8.99262L64.6877 13.3064C64.7349 13.5775 64.5522 13.8427 64.2752 13.8839C64.1691 13.9016 64.0513 13.8839 63.957 13.8309L60.0852 11.7977L56.2134 13.8309C55.9659 13.9605 55.6654 13.8662 55.5357 13.6187C55.4827 13.5185 55.465 13.4066 55.4827 13.3005L56.2193 8.98672L53.0901 5.93409C52.8897 5.73962 52.8897 5.42139 53.0783 5.22102C53.1549 5.14441 53.2551 5.09137 53.3671 5.07369L57.6926 4.44313L59.6255 0.518314C59.7964 0.176513 60.3563 0.176513 60.5272 0.518314L62.4601 4.44313L66.7857 5.07369C67.0627 5.11495 67.2512 5.36835 67.21 5.64533C67.1923 5.7514 67.1452 5.85159 67.0627 5.9282L67.0803 5.93998ZM84.7284 5.93998L81.5992 8.99262L82.3358 13.3064C82.3829 13.5775 82.2003 13.8427 81.9233 13.8839C81.8172 13.9016 81.6993 13.8839 81.6051 13.8309L77.7333 11.7977L73.8615 13.8309C73.614 13.9605 73.3134 13.8662 73.1838 13.6187C73.1307 13.5185 73.1131 13.4066 73.1307 13.3005L73.8674 8.98672L70.7381 5.93409C70.5378 5.73962 70.5378 5.42139 70.7264 5.22102C70.803 5.14441 70.9032 5.09137 71.0151 5.07369L75.3407 4.44313L77.2736 0.518314C77.4445 0.176513 78.0044 0.176513 78.1753 0.518314L80.1082 4.44313L84.4338 5.07369C84.7107 5.11495 84.8993 5.36835 84.8581 5.64533C84.8404 5.7514 84.7932 5.85159 84.7107 5.9282L84.7284 5.93998Z" fill="#FFC107"/>
</svg>
