<svg width="18" height="18" viewBox="0 0 18 18" fill="none" xmlns="http://www.w3.org/2000/svg">
<path d="M8.15717 9.88448C8.15717 9.57484 8.40847 9.32353 8.71812 9.32353H10.0448C10.3544 9.32353 10.6057 9.57484 10.6057 9.88448C10.6057 10.1941 10.3544 10.4454 10.0448 10.4454H8.71812C8.40847 10.4454 8.15717 10.1941 8.15717 9.88448ZM12.7059 14.4254H14.0326C14.3422 14.4254 14.5935 14.1741 14.5935 13.8645C14.5935 13.5548 14.3422 13.3035 14.0326 13.3035H12.7059C12.3963 13.3035 12.145 13.5548 12.145 13.8645C12.145 14.1741 12.3963 14.4254 12.7059 14.4254ZM12.7059 10.4454H14.0326C14.3422 10.4454 14.5935 10.1941 14.5935 9.88448C14.5935 9.57484 14.3422 9.32353 14.0326 9.32353H12.7059C12.3963 9.32353 12.145 9.57484 12.145 9.88448C12.145 10.1941 12.3963 10.4454 12.7059 10.4454ZM17.9099 5.23754V14.5084C17.9099 16.285 16.4643 17.7305 14.6878 17.7305H4.08296C2.30642 17.7305 0.86084 16.285 0.86084 14.5084V5.2381C0.86084 3.46156 2.30642 2.01599 4.08296 2.01599H4.84081V1.25028C4.84081 0.940638 5.09211 0.689331 5.40176 0.689331C5.71141 0.689331 5.96271 0.940638 5.96271 1.25028V2.01599H12.8086V1.25028C12.8086 0.940638 13.0599 0.689331 13.3695 0.689331C13.6792 0.689331 13.9305 0.940638 13.9305 1.25028V2.01599H14.6883C16.4649 2.01599 17.9105 3.46156 17.9105 5.2381L17.9099 5.23754ZM16.788 7.1173H1.98275V14.5084C1.98275 15.6662 2.92459 16.6086 4.08296 16.6086H14.6883C15.8462 16.6086 16.7886 15.6668 16.7886 14.5084V7.11786L16.788 7.1173ZM16.788 5.23754C16.788 4.07974 15.8462 3.13733 14.6878 3.13733H13.9299V4.56608C13.9299 4.87573 13.6786 5.12704 13.369 5.12704C13.0593 5.12704 12.808 4.87573 12.808 4.56608V3.13733H5.96215V4.56608C5.96215 4.87573 5.71085 5.12704 5.4012 5.12704C5.09155 5.12704 4.84025 4.87573 4.84025 4.56608V3.13733H4.0824C2.92459 3.13733 1.98219 4.07917 1.98219 5.23754V5.99539H16.7874V5.23754H16.788ZM4.73815 14.4254H6.06481C6.37445 14.4254 6.62576 14.1741 6.62576 13.8645C6.62576 13.5548 6.37445 13.3035 6.06481 13.3035H4.73815C4.42851 13.3035 4.1772 13.5548 4.1772 13.8645C4.1772 14.1741 4.42851 14.4254 4.73815 14.4254ZM8.71812 14.4254H10.0448C10.3544 14.4254 10.6057 14.1741 10.6057 13.8645C10.6057 13.5548 10.3544 13.3035 10.0448 13.3035H8.71812C8.40847 13.3035 8.15717 13.5548 8.15717 13.8645C8.15717 14.1741 8.40847 14.4254 8.71812 14.4254ZM4.73815 10.4454H6.06481C6.37445 10.4454 6.62576 10.1941 6.62576 9.88448C6.62576 9.57484 6.37445 9.32353 6.06481 9.32353H4.73815C4.42851 9.32353 4.1772 9.57484 4.1772 9.88448C4.1772 10.1941 4.42851 10.4454 4.73815 10.4454Z" fill="#AFB5C1"/>
</svg>
