<svg width="18" height="16" viewBox="0 0 18 16" fill="none" xmlns="http://www.w3.org/2000/svg">
<path d="M12.8973 0C12.2192 0.000825314 11.5485 0.147031 10.9266 0.4296C10.3046 0.712168 9.74451 1.12511 9.2809 1.64295C8.60149 0.884026 7.71978 0.356396 6.75024 0.128554C5.7807 -0.0992878 4.76811 -0.0168181 3.84391 0.365257C2.91972 0.747332 2.12661 1.41137 1.56755 2.27115C1.00849 3.13094 0.70929 4.14678 0.708801 5.18678C0.708801 10.3511 8.66746 15.4202 9.01302 15.6192C9.09635 15.6716 9.19173 15.6993 9.28894 15.6993C9.38615 15.6993 9.48152 15.6716 9.56485 15.6192C9.89434 15.4202 17.853 10.3511 17.853 5.18678C17.8516 3.81162 17.329 2.4932 16.3999 1.52081C15.4709 0.548424 14.2112 0.00148426 12.8973 0ZM9.2809 14.4781C7.89597 13.5529 1.78031 9.22967 1.78031 5.18678C1.781 4.32324 2.0444 3.48235 2.53234 2.786C3.02028 2.08965 3.70741 1.574 4.49414 1.3138C5.28087 1.05359 6.12633 1.06235 6.90799 1.33879C7.68965 1.61524 8.3669 2.14501 8.84158 2.85133C8.89103 2.9248 8.95664 2.98475 9.03286 3.02613C9.10908 3.06752 9.19369 3.08912 9.27956 3.08912C9.36543 3.08912 9.45004 3.06752 9.52626 3.02613C9.60248 2.98475 9.66809 2.9248 9.71754 2.85133C10.1918 2.14379 10.8692 1.61288 11.6514 1.33565C12.4336 1.05843 13.2798 1.04933 14.0673 1.30968C14.8547 1.57002 15.5424 2.08626 16.0305 2.78344C16.5185 3.48063 16.7816 4.32248 16.7815 5.18678C16.7815 9.22686 10.6658 13.5501 9.2809 14.4781Z" fill="black"/>
</svg>
