<svg width="19" height="18" viewBox="0 0 19 18" fill="none" xmlns="http://www.w3.org/2000/svg">
<path d="M12.5282 9.77446C12.5282 9.49406 12.7799 9.26649 13.0899 9.26649H14.5628C14.8728 9.26649 15.1245 9.49406 15.1245 9.77446C15.1245 10.0549 14.8728 10.2824 14.5628 10.2824H13.0899C12.7799 10.2824 12.5282 10.0549 12.5282 9.77446ZM13.0899 14.2784H14.5628C14.8728 14.2784 15.1245 14.0509 15.1245 13.7705C15.1245 13.4901 14.8728 13.2625 14.5628 13.2625H13.0899C12.7799 13.2625 12.5282 13.4901 12.5282 13.7705C12.5282 14.0509 12.7799 14.2784 13.0899 14.2784ZM8.66242 10.2824H10.1353C10.4453 10.2824 10.697 10.0549 10.697 9.77446C10.697 9.49406 10.4453 9.26649 10.1353 9.26649H8.66242C8.35235 9.26649 8.1007 9.49406 8.1007 9.77446C8.1007 10.0549 8.35235 10.2824 8.66242 10.2824ZM4.24353 10.2824H5.71637C6.02644 10.2824 6.27809 10.0549 6.27809 9.77446C6.27809 9.49406 6.02644 9.26649 5.71637 9.26649H4.24353C3.93345 9.26649 3.6818 9.49406 3.6818 9.77446C3.6818 10.0549 3.93345 10.2824 4.24353 10.2824ZM18.8068 5.10894V14.4176C18.8068 16.1708 17.2295 17.5972 15.2908 17.5972H3.51553C1.57683 17.5972 -0.000488281 16.1708 -0.000488281 14.4176V5.10894C-0.000488281 3.35543 1.57683 1.92906 3.51553 1.92906H4.41841V1.10514C4.41841 0.824738 4.67006 0.597168 4.98013 0.597168C5.29021 0.597168 5.54186 0.824738 5.54186 1.10514V1.92906H13.2648V1.10514C13.2648 0.824738 13.5165 0.597168 13.8265 0.597168C14.1366 0.597168 14.3883 0.824738 14.3883 1.10514V1.92906H15.2911C17.2298 1.92906 18.8072 3.35543 18.8072 5.10894H18.8068ZM17.6833 6.94101H1.12296V14.4173C1.12296 15.6103 2.19623 16.5809 3.51553 16.5809H15.2908C16.6101 16.5809 17.6833 15.6103 17.6833 14.4173V6.94101ZM17.6833 5.10894C17.6833 3.91589 16.6101 2.945 15.2908 2.945H14.3879V4.43504C14.3879 4.71544 14.1362 4.943 13.8262 4.943C13.5161 4.943 13.2644 4.71544 13.2644 4.43504V2.945H5.54148V4.43504C5.54148 4.71544 5.28983 4.943 4.97976 4.943C4.66969 4.943 4.41803 4.71544 4.41803 4.43504V2.945H3.51516C2.19585 2.945 1.12259 3.91555 1.12259 5.10894V5.92508H17.6833V5.10894ZM8.66242 14.2784H10.1353C10.4453 14.2784 10.697 14.0509 10.697 13.7705C10.697 13.4901 10.4453 13.2625 10.1353 13.2625H8.66242C8.35235 13.2625 8.1007 13.4901 8.1007 13.7705C8.1007 14.0509 8.35235 14.2784 8.66242 14.2784ZM4.24353 14.2784H5.71637C6.02644 14.2784 6.27809 14.0509 6.27809 13.7705C6.27809 13.4901 6.02644 13.2625 5.71637 13.2625H4.24353C3.93345 13.2625 3.6818 13.4901 3.6818 13.7705C3.6818 14.0509 3.93345 14.2784 4.24353 14.2784Z" fill="#AEAFB0"/>
</svg>
