<svg width="86" height="14" viewBox="0 0 86 14" fill="none" xmlns="http://www.w3.org/2000/svg">
<path id="Vector" d="M14.4187 5.81524L11.2894 8.86788L12.0261 13.1816C12.0732 13.4527 11.8905 13.7179 11.6136 13.7592C11.5075 13.7768 11.3896 13.7592 11.2953 13.7061L7.42355 11.673L3.55177 13.7061C3.30426 13.8358 3.00371 13.7415 2.87406 13.494C2.82103 13.3938 2.80335 13.2818 2.82103 13.1757L3.55767 8.86198L0.434313 5.81524C0.233947 5.62077 0.233947 5.30254 0.422527 5.10217C0.499137 5.02556 0.59932 4.97253 0.71129 4.95485L5.03684 4.32428L6.97568 0.411252C7.14658 0.0694514 7.70642 0.0694514 7.87732 0.411252L9.81027 4.33607L14.1358 4.96663C14.4128 5.00788 14.6014 5.26129 14.5601 5.53827C14.5424 5.64434 14.4953 5.74452 14.4128 5.82114L14.4187 5.81524ZM32.0668 5.81524L28.9375 8.86788L29.6741 13.1816C29.7213 13.4527 29.5386 13.7179 29.2616 13.7592C29.1556 13.7768 29.0377 13.7592 28.9434 13.7061L25.0716 11.673L21.1998 13.7061C20.9523 13.8358 20.6518 13.7415 20.5221 13.494C20.4691 13.3938 20.4514 13.2818 20.4691 13.1757L21.2057 8.86198L18.0765 5.80935C17.8761 5.61488 17.8761 5.29665 18.0647 5.09628C18.1413 5.01967 18.2415 4.96663 18.3535 4.94895L22.679 4.31839L24.612 0.393573C24.7829 0.0517721 25.3427 0.0517721 25.5136 0.393573L27.4465 4.31839L31.7721 4.94895C32.0491 4.99021 32.2376 5.24361 32.1964 5.52059C32.1787 5.62666 32.1316 5.72685 32.0491 5.80346L32.0668 5.81524ZM49.7148 5.81524L46.5856 8.86788L47.3222 13.1816C47.3694 13.4527 47.1867 13.7179 46.9097 13.7592C46.8036 13.7768 46.6858 13.7592 46.5915 13.7061L42.7197 11.673L38.8479 13.7061C38.6004 13.8358 38.2998 13.7415 38.1702 13.494C38.1172 13.3938 38.0995 13.2818 38.1172 13.1757L38.8538 8.86198L35.7245 5.80935C35.5242 5.61488 35.5242 5.29665 35.7128 5.09628C35.7894 5.01967 35.8896 4.96663 36.0015 4.94895L40.3271 4.31839L42.26 0.393573C42.4309 0.0517721 42.9908 0.0517721 43.1617 0.393573L45.0946 4.31839L49.4202 4.94895C49.6971 4.99021 49.8857 5.24361 49.8445 5.52059C49.8268 5.62666 49.7796 5.72685 49.6971 5.80346L49.7148 5.81524ZM67.3629 5.81524L64.2336 8.86788L64.9703 13.1816C65.0174 13.4527 64.8347 13.7179 64.5578 13.7592C64.4517 13.7768 64.3338 13.7592 64.2395 13.7061L60.3677 11.673L56.496 13.7061C56.2485 13.8358 55.9479 13.7415 55.8183 13.494C55.7652 13.3938 55.7475 13.2818 55.7652 13.1757L56.5019 8.86198L53.3726 5.80935C53.1722 5.61488 53.1722 5.29665 53.3608 5.09628C53.4374 5.01967 53.5376 4.96663 53.6496 4.94895L57.9751 4.31839L59.9081 0.393573C60.079 0.0517721 60.6388 0.0517721 60.8097 0.393573L62.7427 4.31839L67.0682 4.94895C67.3452 4.99021 67.5338 5.24361 67.4925 5.52059C67.4748 5.62666 67.4277 5.72685 67.3452 5.80346L67.3629 5.81524ZM85.0109 5.81524L81.8817 8.86788L82.6183 13.1816C82.6655 13.4527 82.4828 13.7179 82.2058 13.7592C82.0997 13.7768 81.9819 13.7592 81.8876 13.7061L78.0158 11.673L74.144 13.7061C73.8965 13.8358 73.596 13.7415 73.4663 13.494C73.4133 13.3938 73.3956 13.2818 73.4133 13.1757L74.1499 8.86198L71.0207 5.80935C70.8203 5.61488 70.8203 5.29665 71.0089 5.09628C71.0855 5.01967 71.1857 4.96663 71.2977 4.94895L75.6232 4.31839L77.5561 0.393573C77.727 0.0517721 78.2869 0.0517721 78.4578 0.393573L80.3907 4.31839L84.7163 4.94895C84.9933 4.99021 85.1818 5.24361 85.1406 5.52059C85.1229 5.62666 85.0758 5.72685 84.9933 5.80346L85.0109 5.81524Z" fill="#FFC107"/>
</svg>
