<svg width="47" height="47" viewBox="0 0 47 47" fill="none" xmlns="http://www.w3.org/2000/svg">
<path d="M23.5454 46.0211C10.8613 46.0211 0.54541 35.7053 0.54541 23.0211C0.54541 10.337 10.8613 0.0211182 23.5454 0.0211182C36.2296 0.0211182 46.5454 10.337 46.5454 23.0211C46.5454 35.7053 36.2296 46.0211 23.5454 46.0211ZM23.5454 2.29835C12.1183 2.29835 2.82264 11.594 2.82264 23.0211C2.82264 34.4482 12.1183 43.7439 23.5454 43.7439C34.9725 43.7439 44.2682 34.4482 44.2682 23.0211C44.2682 11.594 34.9725 2.29835 23.5454 2.29835ZM28.6353 24.0316C29.2544 23.5002 29.2544 22.5421 28.6353 22.0106L20.6282 15.1359C20.1515 14.7266 19.4332 14.7809 19.0235 15.2573C18.6132 15.7343 18.6675 16.4536 19.1448 16.8635L26.3145 23.0211L19.1448 29.1788C18.6675 29.5887 18.6132 30.308 19.0235 30.7849C19.4332 31.2613 20.1515 31.3156 20.6282 30.9063L28.6353 24.0316Z" fill="#424DF7"/>
</svg>
