<svg width="18" height="18" viewBox="0 0 18 18" fill="none" xmlns="http://www.w3.org/2000/svg">
<path id="Vector" d="M8.15765 9.88436C8.15765 9.57472 8.40896 9.32341 8.71861 9.32341H10.0453C10.3549 9.32341 10.6062 9.57472 10.6062 9.88436C10.6062 10.194 10.3549 10.4453 10.0453 10.4453H8.71861C8.40896 10.4453 8.15765 10.194 8.15765 9.88436ZM12.7064 14.4253H14.0331C14.3427 14.4253 14.594 14.174 14.594 13.8643C14.594 13.5547 14.3427 13.3034 14.0331 13.3034H12.7064C12.3968 13.3034 12.1455 13.5547 12.1455 13.8643C12.1455 14.174 12.3968 14.4253 12.7064 14.4253ZM12.7064 10.4453H14.0331C14.3427 10.4453 14.594 10.194 14.594 9.88436C14.594 9.57472 14.3427 9.32341 14.0331 9.32341H12.7064C12.3968 9.32341 12.1455 9.57472 12.1455 9.88436C12.1455 10.194 12.3968 10.4453 12.7064 10.4453ZM17.9104 5.23742V14.5083C17.9104 16.2848 16.4648 17.7304 14.6883 17.7304H4.08345C2.30691 17.7304 0.861328 16.2848 0.861328 14.5083V5.23798C0.861328 3.46144 2.30691 2.01586 4.08345 2.01586H4.8413V1.25016C4.8413 0.940516 5.0926 0.689209 5.40225 0.689209C5.71189 0.689209 5.9632 0.940516 5.9632 1.25016V2.01586H12.8091V1.25016C12.8091 0.940516 13.0604 0.689209 13.37 0.689209C13.6797 0.689209 13.931 0.940516 13.931 1.25016V2.01586H14.6888C16.4654 2.01586 17.911 3.46144 17.911 5.23798L17.9104 5.23742ZM16.7885 7.11718H1.98324V14.5083C1.98324 15.6661 2.92508 16.6085 4.08345 16.6085H14.6888C15.8466 16.6085 16.789 15.6667 16.789 14.5083V7.11774L16.7885 7.11718ZM16.7885 5.23742C16.7885 4.07961 15.8466 3.13721 14.6883 3.13721H13.9304V4.56596C13.9304 4.87561 13.6791 5.12691 13.3695 5.12691C13.0598 5.12691 12.8085 4.87561 12.8085 4.56596V3.13721H5.96264V4.56596C5.96264 4.87561 5.71133 5.12691 5.40169 5.12691C5.09204 5.12691 4.84073 4.87561 4.84073 4.56596V3.13721H4.08289C2.92508 3.13721 1.98267 4.07905 1.98267 5.23742V5.99527H16.7879V5.23742H16.7885ZM4.73864 14.4253H6.0653C6.37494 14.4253 6.62625 14.174 6.62625 13.8643C6.62625 13.5547 6.37494 13.3034 6.0653 13.3034H4.73864C4.42899 13.3034 4.17769 13.5547 4.17769 13.8643C4.17769 14.174 4.42899 14.4253 4.73864 14.4253ZM8.71861 14.4253H10.0453C10.3549 14.4253 10.6062 14.174 10.6062 13.8643C10.6062 13.5547 10.3549 13.3034 10.0453 13.3034H8.71861C8.40896 13.3034 8.15765 13.5547 8.15765 13.8643C8.15765 14.174 8.40896 14.4253 8.71861 14.4253ZM4.73864 10.4453H6.0653C6.37494 10.4453 6.62625 10.194 6.62625 9.88436C6.62625 9.57472 6.37494 9.32341 6.0653 9.32341H4.73864C4.42899 9.32341 4.17769 9.57472 4.17769 9.88436C4.17769 10.194 4.42899 10.4453 4.73864 10.4453Z" fill="#AFB5C1"/>
</svg>
