<svg width="55" height="55" viewBox="0 0 55 55" fill="none" xmlns="http://www.w3.org/2000/svg">
<g id="Logo">
<rect id="Rectangle 1" x="-0.000488281" y="0.21875" width="54.5625" height="54.5625" rx="12.1572" fill="#424DF7"/>
<path id="Vector" d="M31.3411 28.4937C35.4779 27.0425 35.7614 23.2441 34.4484 20.63C33.3475 18.433 31.3006 17.5465 28.9558 17.4774C26.1011 17.3964 19.4289 17.4774 19.4289 17.4774L19.3931 37.413H22.4552C22.4552 37.413 22.4504 31.4771 22.4504 29.597C24.4402 29.597 26.2702 29.4421 28.0646 29.6351C30.3927 29.8853 30.9193 30.5287 31.3602 32.945C31.4126 33.2333 31.6747 34.2294 31.8916 35.7711C31.9654 36.3025 32.0512 37.4511 32.9567 37.413H35.0609C34.8821 36.0952 34.7177 34.9728 34.5771 33.8457C34.3031 31.632 34.0791 29.3968 31.3435 28.4913L31.3411 28.4937ZM28.3267 27.2403H22.4361V19.7793H28.3243C30.3856 19.7793 32.0536 21.4498 32.0536 23.5086C32.0536 25.5674 30.3832 27.2379 28.3243 27.2379L28.3267 27.2403Z" fill="white"/>
</g>
</svg>
