<svg width="55" height="56" viewBox="0 0 55 56" fill="none" xmlns="http://www.w3.org/2000/svg">
<g id="Logo">
<rect id="Rectangle 1" x="0.26123" y="0.59375" width="54.5625" height="54.5625" rx="12.1572" fill="#424DF7"/>
<path id="Vector" d="M31.6142 28.9411C35.7509 27.4899 36.0345 23.6915 34.7215 21.0774C33.6206 18.8804 31.5737 17.9939 29.2289 17.9248C26.3741 17.8438 19.7019 17.9248 19.7019 17.9248L19.6662 37.8604H22.7283C22.7283 37.8604 22.7235 31.9245 22.7235 30.0444C24.7132 30.0444 26.5433 29.8895 28.3377 30.0825C30.6658 30.3327 31.1924 30.9761 31.6332 33.3924C31.6857 33.6807 31.9478 34.6768 32.1646 36.2185C32.2385 36.7499 32.3243 37.8985 33.2298 37.8604H35.3339C35.1552 36.5426 34.9908 35.4202 34.8502 34.2931C34.5762 32.0794 34.3522 29.8442 31.6166 28.9387L31.6142 28.9411ZM28.5998 27.6876H22.7092V20.2267H28.5974C30.6586 20.2267 32.3267 21.8971 32.3267 23.956C32.3267 26.0148 30.6562 27.6853 28.5974 27.6853L28.5998 27.6876Z" fill="white"/>
</g>
</svg>
