<svg width="86" height="14" viewBox="0 0 86 14" fill="none" xmlns="http://www.w3.org/2000/svg">
<path d="M14.7085 5.81523L11.5792 8.86786L12.3159 13.1816C12.363 13.4527 12.1803 13.7179 11.9034 13.7592C11.7973 13.7768 11.6794 13.7592 11.5851 13.7061L7.71335 11.673L3.84157 13.7061C3.59406 13.8358 3.29351 13.7415 3.16386 13.494C3.11082 13.3938 3.09314 13.2818 3.11082 13.1757L3.84746 8.86197L0.724108 5.81523C0.523742 5.62075 0.523742 5.30253 0.712322 5.10216C0.788932 5.02555 0.889115 4.97251 1.00108 4.95483L5.32663 4.32427L7.26547 0.411237C7.43637 0.0694361 7.99622 0.0694361 8.16712 0.411237L10.1001 4.33605L14.4256 4.96662C14.7026 5.00787 14.8912 5.26127 14.8499 5.53825C14.8322 5.64433 14.7851 5.74451 14.7026 5.82112L14.7085 5.81523ZM32.3565 5.81523L29.2273 8.86786L29.9639 13.1816C30.0111 13.4527 29.8284 13.7179 29.5514 13.7592C29.4453 13.7768 29.3275 13.7592 29.2332 13.7061L25.3614 11.673L21.4896 13.7061C21.2421 13.8358 20.9416 13.7415 20.8119 13.494C20.7589 13.3938 20.7412 13.2818 20.7589 13.1757L21.4955 8.86197L18.3663 5.80933C18.1659 5.61486 18.1659 5.29663 18.3545 5.09627C18.4311 5.01966 18.5313 4.96662 18.6433 4.94894L22.9688 4.31838L24.9017 0.393558C25.0726 0.0517568 25.6325 0.0517568 25.8034 0.393558L27.7363 4.31838L32.0619 4.94894C32.3389 4.99019 32.5274 5.24359 32.4862 5.52057C32.4685 5.62665 32.4214 5.72683 32.3389 5.80344L32.3565 5.81523ZM50.0046 5.81523L46.8754 8.86786L47.612 13.1816C47.6591 13.4527 47.4765 13.7179 47.1995 13.7592C47.0934 13.7768 46.9755 13.7592 46.8813 13.7061L43.0095 11.673L39.1377 13.7061C38.8902 13.8358 38.5896 13.7415 38.46 13.494C38.4069 13.3938 38.3893 13.2818 38.4069 13.1757L39.1436 8.86197L36.0143 5.80933C35.814 5.61486 35.814 5.29663 36.0026 5.09627C36.0792 5.01966 36.1793 4.96662 36.2913 4.94894L40.6169 4.31838L42.5498 0.393558C42.7207 0.0517568 43.2806 0.0517568 43.4515 0.393558L45.3844 4.31838L49.7099 4.94894C49.9869 4.99019 50.1755 5.24359 50.1343 5.52057C50.1166 5.62665 50.0694 5.72683 49.9869 5.80344L50.0046 5.81523ZM67.6527 5.81523L64.5234 8.86786L65.2601 13.1816C65.3072 13.4527 65.1245 13.7179 64.8475 13.7592C64.7415 13.7768 64.6236 13.7592 64.5293 13.7061L60.6575 11.673L56.7858 13.7061C56.5382 13.8358 56.2377 13.7415 56.1081 13.494C56.055 13.3938 56.0373 13.2818 56.055 13.1757L56.7916 8.86197L53.6624 5.80933C53.462 5.61486 53.462 5.29663 53.6506 5.09627C53.7272 5.01966 53.8274 4.96662 53.9394 4.94894L58.2649 4.31838L60.1979 0.393558C60.3688 0.0517568 60.9286 0.0517568 61.0995 0.393558L63.0325 4.31838L67.358 4.94894C67.635 4.99019 67.8236 5.24359 67.7823 5.52057C67.7646 5.62665 67.7175 5.72683 67.635 5.80344L67.6527 5.81523ZM85.3007 5.81523L82.1715 8.86786L82.9081 13.1816C82.9553 13.4527 82.7726 13.7179 82.4956 13.7592C82.3895 13.7768 82.2717 13.7592 82.1774 13.7061L78.3056 11.673L74.4338 13.7061C74.1863 13.8358 73.8858 13.7415 73.7561 13.494C73.7031 13.3938 73.6854 13.2818 73.7031 13.1757L74.4397 8.86197L71.3105 5.80933C71.1101 5.61486 71.1101 5.29663 71.2987 5.09627C71.3753 5.01966 71.4755 4.96662 71.5874 4.94894L75.913 4.31838L77.8459 0.393558C78.0168 0.0517568 78.5767 0.0517568 78.7476 0.393558L80.6805 4.31838L85.0061 4.94894C85.2831 4.99019 85.4716 5.24359 85.4304 5.52057C85.4127 5.62665 85.3656 5.72683 85.2831 5.80344L85.3007 5.81523Z" fill="#FFC107"/>
</svg>
