<svg width="18" height="16" viewBox="0 0 18 16" fill="none" xmlns="http://www.w3.org/2000/svg">
<path d="M12.8973 0.027832C12.2192 0.0286573 11.5485 0.174863 10.9266 0.457432C10.3046 0.74 9.74451 1.15294 9.2809 1.67078C8.60149 0.911858 7.71978 0.384228 6.75024 0.156386C5.7807 -0.0714558 4.76811 0.0110139 3.84391 0.393089C2.91972 0.775164 2.12661 1.4392 1.56755 2.29899C1.00849 3.15878 0.70929 4.17461 0.708801 5.21461C0.708801 10.379 8.66746 15.448 9.01302 15.6471C9.09635 15.6995 9.19173 15.7271 9.28894 15.7271C9.38615 15.7271 9.48152 15.6995 9.56485 15.6471C9.89434 15.448 17.853 10.379 17.853 5.21461C17.8516 3.83945 17.329 2.52103 16.3999 1.54864C15.4709 0.576256 14.2112 0.0293163 12.8973 0.027832ZM9.2809 14.506C7.89597 13.5808 1.78031 9.2575 1.78031 5.21461C1.781 4.35107 2.0444 3.51019 2.53234 2.81383C3.02028 2.11748 3.70741 1.60184 4.49414 1.34163C5.28087 1.08143 6.12633 1.09018 6.90799 1.36662C7.68965 1.64307 8.3669 2.17284 8.84158 2.87916C8.89103 2.95263 8.95664 3.01258 9.03286 3.05397C9.10908 3.09535 9.19369 3.11695 9.27956 3.11695C9.36543 3.11695 9.45004 3.09535 9.52626 3.05397C9.60248 3.01258 9.66809 2.95263 9.71754 2.87916C10.1918 2.17162 10.8692 1.64071 11.6514 1.36349C12.4336 1.08626 13.2798 1.07716 14.0673 1.33751C14.8547 1.59785 15.5424 2.11409 16.0305 2.81127C16.5185 3.50846 16.7816 4.35031 16.7815 5.21461C16.7815 9.2547 10.6658 13.5779 9.2809 14.506Z" fill="black"/>
</svg>
