<svg width="47" height="47" viewBox="0 0 47 47" fill="none" xmlns="http://www.w3.org/2000/svg">
<path d="M23.8774 0.255857C36.5616 0.255858 46.8774 10.5717 46.8774 23.2559C46.8774 35.94 36.5616 46.2559 23.8774 46.2559C11.1933 46.2559 0.877442 35.94 0.877443 23.2559C0.877445 10.5717 11.1933 0.255856 23.8774 0.255857ZM23.8774 43.9786C35.3046 43.9786 44.6002 34.683 44.6002 23.2559C44.6002 11.8287 35.3046 2.53308 23.8774 2.53308C12.4503 2.53308 3.15467 11.8287 3.15467 23.2559C3.15467 34.683 12.4503 43.9786 23.8774 43.9786ZM18.7875 22.2453C18.1685 22.7768 18.1685 23.7349 18.7875 24.2664L26.7946 31.141C27.2714 31.5504 27.9896 31.496 28.3994 31.0196C28.8096 30.5427 28.7553 29.8234 28.278 29.4135L21.1083 23.2559L28.278 17.0982C28.7553 16.6883 28.8097 15.969 28.3994 15.4921C27.9896 15.0157 27.2714 14.9613 26.7946 15.3707L18.7875 22.2453Z" fill="#AFB5C1"/>
</svg>
