<svg width="86" height="14" viewBox="0 0 86 14" fill="none" xmlns="http://www.w3.org/2000/svg">
<path id="Vector" d="M15.1293 5.81524L12 8.86788L12.7367 13.1816C12.7838 13.4527 12.6011 13.7179 12.3241 13.7592C12.2181 13.7768 12.1002 13.7592 12.0059 13.7061L8.13412 11.673L4.26234 13.7061C4.01483 13.8358 3.71428 13.7415 3.58464 13.494C3.5316 13.3938 3.51392 13.2818 3.5316 13.1757L4.26824 8.86198L1.14488 5.81524C0.944518 5.62077 0.944518 5.30254 1.1331 5.10217C1.20971 5.02556 1.30989 4.97253 1.42186 4.95485L5.74741 4.32428L7.68625 0.411252C7.85715 0.0694514 8.41699 0.0694514 8.58789 0.411252L10.5208 4.33607L14.8464 4.96663C15.1234 5.00788 15.3119 5.26129 15.2707 5.53827C15.253 5.64434 15.2059 5.74452 15.1234 5.82114L15.1293 5.81524ZM32.7773 5.81524L29.6481 8.86788L30.3847 13.1816C30.4319 13.4527 30.2492 13.7179 29.9722 13.7592C29.8661 13.7768 29.7483 13.7592 29.654 13.7061L25.7822 11.673L21.9104 13.7061C21.6629 13.8358 21.3623 13.7415 21.2327 13.494C21.1797 13.3938 21.162 13.2818 21.1797 13.1757L21.9163 8.86198L18.7871 5.80935C18.5867 5.61488 18.5867 5.29665 18.7753 5.09628C18.8519 5.01967 18.9521 4.96663 19.064 4.94895L23.3896 4.31839L25.3225 0.393573C25.4934 0.0517721 26.0533 0.0517721 26.2242 0.393573L28.1571 4.31839L32.4827 4.94895C32.7596 4.99021 32.9482 5.24361 32.907 5.52059C32.8893 5.62666 32.8421 5.72685 32.7596 5.80346L32.7773 5.81524ZM50.4254 5.81524L47.2961 8.86788L48.0328 13.1816C48.0799 13.4527 47.8972 13.7179 47.6203 13.7592C47.5142 13.7768 47.3963 13.7592 47.302 13.7061L43.4303 11.673L39.5585 13.7061C39.311 13.8358 39.0104 13.7415 38.8808 13.494C38.8277 13.3938 38.81 13.2818 38.8277 13.1757L39.5644 8.86198L36.4351 5.80935C36.2348 5.61488 36.2348 5.29665 36.4233 5.09628C36.4999 5.01967 36.6001 4.96663 36.7121 4.94895L41.0376 4.31839L42.9706 0.393573C43.1415 0.0517721 43.7013 0.0517721 43.8722 0.393573L45.8052 4.31839L50.1307 4.94895C50.4077 4.99021 50.5963 5.24361 50.555 5.52059C50.5373 5.62666 50.4902 5.72685 50.4077 5.80346L50.4254 5.81524ZM68.0734 5.81524L64.9442 8.86788L65.6808 13.1816C65.728 13.4527 65.5453 13.7179 65.2683 13.7592C65.1622 13.7768 65.0444 13.7592 64.9501 13.7061L61.0783 11.673L57.2065 13.7061C56.959 13.8358 56.6585 13.7415 56.5288 13.494C56.4758 13.3938 56.4581 13.2818 56.4758 13.1757L57.2124 8.86198L54.0832 5.80935C53.8828 5.61488 53.8828 5.29665 54.0714 5.09628C54.148 5.01967 54.2482 4.96663 54.3602 4.94895L58.6857 4.31839L60.6186 0.393573C60.7896 0.0517721 61.3494 0.0517721 61.5203 0.393573L63.4532 4.31839L67.7788 4.94895C68.0558 4.99021 68.2443 5.24361 68.2031 5.52059C68.1854 5.62666 68.1383 5.72685 68.0558 5.80346L68.0734 5.81524ZM85.7215 5.81524L82.5923 8.86788L83.3289 13.1816C83.376 13.4527 83.1934 13.7179 82.9164 13.7592C82.8103 13.7768 82.6925 13.7592 82.5982 13.7061L78.7264 11.673L74.8546 13.7061C74.6071 13.8358 74.3065 13.7415 74.1769 13.494C74.1238 13.3938 74.1062 13.2818 74.1238 13.1757L74.8605 8.86198L71.7312 5.80935C71.5309 5.61488 71.5309 5.29665 71.7195 5.09628C71.7961 5.01967 71.8963 4.96663 72.0082 4.94895L76.3338 4.31839L78.2667 0.393573C78.4376 0.0517721 78.9975 0.0517721 79.1684 0.393573L81.1013 4.31839L85.4269 4.94895C85.7038 4.99021 85.8924 5.24361 85.8512 5.52059C85.8335 5.62666 85.7863 5.72685 85.7038 5.80346L85.7215 5.81524Z" fill="#FFC107"/>
</svg>
