<svg width="47" height="47" viewBox="0 0 47 47" fill="none" xmlns="http://www.w3.org/2000/svg">
<path id="Vector" d="M23.5449 46.2559C10.8608 46.2559 0.544922 35.94 0.544922 23.2559C0.544922 10.5717 10.8608 0.255859 23.5449 0.255859C36.2291 0.255859 46.5449 10.5717 46.5449 23.2559C46.5449 35.94 36.2291 46.2559 23.5449 46.2559ZM23.5449 2.53309C12.1178 2.53309 2.82215 11.8287 2.82215 23.2559C2.82215 34.683 12.1178 43.9786 23.5449 43.9786C34.972 43.9786 44.2677 34.683 44.2677 23.2559C44.2677 11.8287 34.972 2.53309 23.5449 2.53309ZM28.6349 24.2664C29.2539 23.7349 29.2539 22.7768 28.6349 22.2453L20.6278 15.3707C20.151 14.9614 19.4327 15.0157 19.023 15.4921C18.6127 15.969 18.6671 16.6883 19.1443 17.0982L26.314 23.2559L19.1443 29.4135C18.6671 29.8234 18.6127 30.5427 19.023 31.0197C19.4327 31.496 20.151 31.5504 20.6278 31.141L28.6349 24.2664Z" fill="#424DF7"/>
</svg>
