<svg width="14" height="18" viewBox="0 0 14 18" fill="none" xmlns="http://www.w3.org/2000/svg">
<path d="M7.00183 4.60646C5.30668 4.60646 3.92784 5.9853 3.92784 7.68045C3.92784 9.3756 5.30668 10.7544 7.00183 10.7544C8.69698 10.7544 10.0758 9.3756 10.0758 7.68045C10.0758 5.9853 8.69698 4.60646 7.00183 4.60646ZM7.00183 9.68562C5.89647 9.68562 4.99666 8.78638 4.99666 7.68045C4.99666 6.57452 5.8959 5.67528 7.00183 5.67528C8.10776 5.67528 9.007 6.57452 9.007 7.68045C9.007 8.78638 8.10776 9.68562 7.00183 9.68562ZM7.00183 0.881592C3.25298 0.881592 0.202972 3.9316 0.202972 7.68045V7.87229C0.202972 9.77241 1.30091 11.9968 3.46652 14.4827C5.04233 16.2921 6.60045 17.5579 6.66554 17.6104L7.00126 17.8816L7.33698 17.6104C7.40264 17.5573 8.96018 16.2921 10.536 14.4822C12.7016 11.9957 13.7995 9.77184 13.7995 7.87172V7.67988C13.8001 3.9316 10.7507 0.881592 7.00183 0.881592ZM12.7313 7.87229C12.7313 11.2158 8.41778 15.2547 7.09547 16.4131L7.00126 16.4953L6.90705 16.4131C5.58474 15.2547 1.27122 11.2158 1.27122 7.87229V7.68045C1.27122 4.52082 3.84163 1.95098 7.00069 1.95098C10.1597 1.95098 12.7302 4.52139 12.7302 7.68045V7.87229H12.7313Z" fill="white"/>
</svg>
